<mxfile host="app.diagrams.net" agent="Mozilla/5.0 (Macintosh; Intel Mac OS X 10_15_7) AppleWebKit/537.36 (KHTML, like Gecko) Chrome/130.0.0.0 Safari/537.36" version="24.8.3">
  <diagram name="Page-1" id="Hwq8ODd7fS5CAAT26_K7">
    <mxGraphModel dx="1242" dy="705" grid="1" gridSize="10" guides="1" tooltips="1" connect="1" arrows="1" fold="1" page="1" pageScale="1" pageWidth="850" pageHeight="1100" math="0" shadow="0">
      <root>
        <mxCell id="0" />
        <mxCell id="1" parent="0" />
        <mxCell id="yUcysdBzzIg5NCyW9ZT4-1" value="tap_txn" style="shape=cylinder3;whiteSpace=wrap;html=1;boundedLbl=1;backgroundOutline=1;size=15;" vertex="1" parent="1">
          <mxGeometry x="660" y="530" width="60" height="80" as="geometry" />
        </mxCell>
        <mxCell id="yUcysdBzzIg5NCyW9ZT4-9" style="edgeStyle=orthogonalEdgeStyle;rounded=0;orthogonalLoop=1;jettySize=auto;html=1;exitX=1;exitY=0.5;exitDx=0;exitDy=0;entryX=0;entryY=0.25;entryDx=0;entryDy=0;exitPerimeter=0;" edge="1" parent="1" source="yUcysdBzzIg5NCyW9ZT4-32" target="yUcysdBzzIg5NCyW9ZT4-3">
          <mxGeometry relative="1" as="geometry">
            <mxPoint x="190" y="365" as="sourcePoint" />
          </mxGeometry>
        </mxCell>
        <mxCell id="yUcysdBzzIg5NCyW9ZT4-10" style="edgeStyle=orthogonalEdgeStyle;rounded=0;orthogonalLoop=1;jettySize=auto;html=1;exitX=1;exitY=0.25;exitDx=0;exitDy=0;entryX=0;entryY=0.25;entryDx=0;entryDy=0;" edge="1" parent="1" source="yUcysdBzzIg5NCyW9ZT4-3" target="yUcysdBzzIg5NCyW9ZT4-4">
          <mxGeometry relative="1" as="geometry" />
        </mxCell>
        <mxCell id="yUcysdBzzIg5NCyW9ZT4-13" value="with&amp;nbsp;deviceId" style="edgeLabel;html=1;align=center;verticalAlign=middle;resizable=0;points=[];" vertex="1" connectable="0" parent="yUcysdBzzIg5NCyW9ZT4-10">
          <mxGeometry x="-0.2889" y="3" relative="1" as="geometry">
            <mxPoint as="offset" />
          </mxGeometry>
        </mxCell>
        <mxCell id="yUcysdBzzIg5NCyW9ZT4-14" style="edgeStyle=orthogonalEdgeStyle;rounded=0;orthogonalLoop=1;jettySize=auto;html=1;entryX=0.5;entryY=0;entryDx=0;entryDy=0;" edge="1" parent="1" source="yUcysdBzzIg5NCyW9ZT4-8" target="yUcysdBzzIg5NCyW9ZT4-4">
          <mxGeometry relative="1" as="geometry" />
        </mxCell>
        <mxCell id="yUcysdBzzIg5NCyW9ZT4-15" value="JOB 0/1" style="edgeLabel;html=1;align=center;verticalAlign=middle;resizable=0;points=[];" vertex="1" connectable="0" parent="yUcysdBzzIg5NCyW9ZT4-14">
          <mxGeometry x="-0.4694" y="1" relative="1" as="geometry">
            <mxPoint as="offset" />
          </mxGeometry>
        </mxCell>
        <mxCell id="yUcysdBzzIg5NCyW9ZT4-19" value="atom tap by deviceId" style="edgeLabel;html=1;align=center;verticalAlign=middle;resizable=0;points=[];" vertex="1" connectable="0" parent="yUcysdBzzIg5NCyW9ZT4-14">
          <mxGeometry x="0.3674" relative="1" as="geometry">
            <mxPoint as="offset" />
          </mxGeometry>
        </mxCell>
        <mxCell id="yUcysdBzzIg5NCyW9ZT4-16" style="edgeStyle=orthogonalEdgeStyle;rounded=0;orthogonalLoop=1;jettySize=auto;html=1;entryX=0.5;entryY=0;entryDx=0;entryDy=0;" edge="1" parent="1" target="yUcysdBzzIg5NCyW9ZT4-3">
          <mxGeometry relative="1" as="geometry">
            <mxPoint x="460" y="250" as="targetPoint" />
            <mxPoint x="390" y="200" as="sourcePoint" />
          </mxGeometry>
        </mxCell>
        <mxCell id="yUcysdBzzIg5NCyW9ZT4-17" value="config facility" style="edgeLabel;html=1;align=center;verticalAlign=middle;resizable=0;points=[];" vertex="1" connectable="0" parent="yUcysdBzzIg5NCyW9ZT4-16">
          <mxGeometry x="-0.2558" y="1" relative="1" as="geometry">
            <mxPoint as="offset" />
          </mxGeometry>
        </mxCell>
        <mxCell id="yUcysdBzzIg5NCyW9ZT4-21" style="edgeStyle=orthogonalEdgeStyle;rounded=0;orthogonalLoop=1;jettySize=auto;html=1;exitX=0.5;exitY=1;exitDx=0;exitDy=0;entryX=0.5;entryY=0;entryDx=0;entryDy=0;" edge="1" parent="1" source="yUcysdBzzIg5NCyW9ZT4-3" target="yUcysdBzzIg5NCyW9ZT4-20">
          <mxGeometry relative="1" as="geometry" />
        </mxCell>
        <mxCell id="yUcysdBzzIg5NCyW9ZT4-3" value="sarg-service" style="rounded=0;whiteSpace=wrap;html=1;" vertex="1" parent="1">
          <mxGeometry x="330" y="350" width="120" height="60" as="geometry" />
        </mxCell>
        <mxCell id="yUcysdBzzIg5NCyW9ZT4-22" style="edgeStyle=orthogonalEdgeStyle;rounded=0;orthogonalLoop=1;jettySize=auto;html=1;exitX=0;exitY=0.75;exitDx=0;exitDy=0;entryX=1;entryY=0.75;entryDx=0;entryDy=0;" edge="1" parent="1" source="yUcysdBzzIg5NCyW9ZT4-4" target="yUcysdBzzIg5NCyW9ZT4-3">
          <mxGeometry relative="1" as="geometry" />
        </mxCell>
        <mxCell id="yUcysdBzzIg5NCyW9ZT4-23" value="response status" style="edgeLabel;html=1;align=center;verticalAlign=middle;resizable=0;points=[];" vertex="1" connectable="0" parent="yUcysdBzzIg5NCyW9ZT4-22">
          <mxGeometry x="0.4111" relative="1" as="geometry">
            <mxPoint x="17" as="offset" />
          </mxGeometry>
        </mxCell>
        <mxCell id="yUcysdBzzIg5NCyW9ZT4-4" value="DAP-controller" style="rounded=0;whiteSpace=wrap;html=1;" vertex="1" parent="1">
          <mxGeometry x="630" y="350" width="120" height="60" as="geometry" />
        </mxCell>
        <mxCell id="yUcysdBzzIg5NCyW9ZT4-8" value="redemption APP" style="sketch=0;verticalLabelPosition=bottom;sketch=0;aspect=fixed;html=1;verticalAlign=top;strokeColor=none;fillColor=#000000;align=center;outlineConnect=0;pointerEvents=1;shape=mxgraph.citrix2.mobile;" vertex="1" parent="1">
          <mxGeometry x="370" y="80" width="45.46" height="90" as="geometry" />
        </mxCell>
        <mxCell id="yUcysdBzzIg5NCyW9ZT4-12" style="edgeStyle=orthogonalEdgeStyle;rounded=0;orthogonalLoop=1;jettySize=auto;html=1;exitX=0.5;exitY=1;exitDx=0;exitDy=0;entryX=0.5;entryY=0;entryDx=0;entryDy=0;entryPerimeter=0;" edge="1" parent="1" source="yUcysdBzzIg5NCyW9ZT4-4" target="yUcysdBzzIg5NCyW9ZT4-1">
          <mxGeometry relative="1" as="geometry" />
        </mxCell>
        <mxCell id="yUcysdBzzIg5NCyW9ZT4-24" style="edgeStyle=orthogonalEdgeStyle;rounded=0;orthogonalLoop=1;jettySize=auto;html=1;exitX=0;exitY=0.5;exitDx=0;exitDy=0;entryX=0.867;entryY=1;entryDx=0;entryDy=0;entryPerimeter=0;" edge="1" parent="1" source="yUcysdBzzIg5NCyW9ZT4-20" target="yUcysdBzzIg5NCyW9ZT4-32">
          <mxGeometry relative="1" as="geometry">
            <mxPoint x="160" y="410" as="targetPoint" />
          </mxGeometry>
        </mxCell>
        <mxCell id="yUcysdBzzIg5NCyW9ZT4-27" value="success" style="edgeLabel;html=1;align=center;verticalAlign=middle;resizable=0;points=[];" vertex="1" connectable="0" parent="yUcysdBzzIg5NCyW9ZT4-24">
          <mxGeometry x="-0.28" y="1" relative="1" as="geometry">
            <mxPoint x="15" as="offset" />
          </mxGeometry>
        </mxCell>
        <mxCell id="yUcysdBzzIg5NCyW9ZT4-28" value="play Green" style="edgeLabel;html=1;align=center;verticalAlign=middle;resizable=0;points=[];" vertex="1" connectable="0" parent="yUcysdBzzIg5NCyW9ZT4-24">
          <mxGeometry x="0.2218" y="1" relative="1" as="geometry">
            <mxPoint x="8" as="offset" />
          </mxGeometry>
        </mxCell>
        <mxCell id="yUcysdBzzIg5NCyW9ZT4-25" style="edgeStyle=orthogonalEdgeStyle;rounded=0;orthogonalLoop=1;jettySize=auto;html=1;exitX=0.5;exitY=1;exitDx=0;exitDy=0;entryX=0.356;entryY=0.96;entryDx=0;entryDy=0;entryPerimeter=0;" edge="1" parent="1" source="yUcysdBzzIg5NCyW9ZT4-20" target="yUcysdBzzIg5NCyW9ZT4-32">
          <mxGeometry relative="1" as="geometry">
            <mxPoint x="100" y="410" as="targetPoint" />
          </mxGeometry>
        </mxCell>
        <mxCell id="yUcysdBzzIg5NCyW9ZT4-29" value="N" style="edgeLabel;html=1;align=center;verticalAlign=middle;resizable=0;points=[];" vertex="1" connectable="0" parent="yUcysdBzzIg5NCyW9ZT4-25">
          <mxGeometry x="-0.3511" y="1" relative="1" as="geometry">
            <mxPoint as="offset" />
          </mxGeometry>
        </mxCell>
        <mxCell id="yUcysdBzzIg5NCyW9ZT4-30" value="play blue" style="edgeLabel;html=1;align=center;verticalAlign=middle;resizable=0;points=[];" vertex="1" connectable="0" parent="yUcysdBzzIg5NCyW9ZT4-25">
          <mxGeometry x="0.12" y="1" relative="1" as="geometry">
            <mxPoint as="offset" />
          </mxGeometry>
        </mxCell>
        <mxCell id="yUcysdBzzIg5NCyW9ZT4-35" value="exception" style="edgeLabel;html=1;align=center;verticalAlign=middle;resizable=0;points=[];" vertex="1" connectable="0" parent="yUcysdBzzIg5NCyW9ZT4-25">
          <mxGeometry x="-0.3783" y="1" relative="1" as="geometry">
            <mxPoint as="offset" />
          </mxGeometry>
        </mxCell>
        <mxCell id="yUcysdBzzIg5NCyW9ZT4-20" value="httpcode=OK" style="rhombus;whiteSpace=wrap;html=1;" vertex="1" parent="1">
          <mxGeometry x="340" y="460" width="100" height="80" as="geometry" />
        </mxCell>
        <mxCell id="yUcysdBzzIg5NCyW9ZT4-32" value="" style="points=[[0,0.5,0],[0.19,0.02,0],[0.59,0,0],[0.985,0.02,0],[1,0.5,0],[0.985,0.98,0],[0.59,1,0],[0.19,0.98,0]];verticalLabelPosition=bottom;sketch=0;html=1;verticalAlign=top;aspect=fixed;align=center;pointerEvents=1;shape=mxgraph.cisco19.camera;fillColor=#005073;strokeColor=none;" vertex="1" parent="1">
          <mxGeometry x="80" y="340" width="90" height="50" as="geometry" />
        </mxCell>
        <mxCell id="yUcysdBzzIg5NCyW9ZT4-34" value="DAP" style="text;html=1;align=center;verticalAlign=middle;resizable=0;points=[];autosize=1;strokeColor=none;fillColor=none;" vertex="1" parent="1">
          <mxGeometry x="110" y="350" width="50" height="30" as="geometry" />
        </mxCell>
      </root>
    </mxGraphModel>
  </diagram>
</mxfile>
